<svg width="14" height="14" viewBox="0 0 14 14" fill="none" xmlns="http://www.w3.org/2000/svg">
  <path d="M7 12.25C9.8995 12.25 12.25 9.8995 12.25 7C12.25 4.10051 9.8995 1.75 7 1.75C4.10051 1.75 1.75 4.10051 1.75 7C1.75 9.8995 4.10051 12.25 7 12.25Z" stroke="currentColor" stroke-width="0.8" stroke-linecap="round" stroke-linejoin="round"/>
  <path d="M7 8.75C8.20812 8.75 9.1875 7.77062 9.1875 6.5625C9.1875 5.35438 8.20812 4.375 7 4.375C5.79188 4.375 4.8125 5.35438 4.8125 6.5625C4.8125 7.77062 5.79188 8.75 7 8.75Z" stroke="currentColor" stroke-width="0.8" stroke-linecap="round" stroke-linejoin="round"/>
  <path d="M3.48901 10.905C3.81818 10.2567 4.32046 9.71211 4.94017 9.33173C5.55988 8.95135 6.27281 8.75 6.99995 8.75C7.72709 8.75 8.44002 8.95135 9.05973 9.33173C9.67944 9.71211 10.1817 10.2567 10.5109 10.905" stroke="currentColor" stroke-width="0.8" stroke-linecap="round" stroke-linejoin="round"/>
</svg>
