<svg width="14" height="14" viewBox="0 0 14 14" fill="none" xmlns="http://www.w3.org/2000/svg">
  <path d="M7 12.25C9.8995 12.25 12.25 9.8995 12.25 7C12.25 4.10051 9.8995 1.75 7 1.75C4.10051 1.75 1.75 4.10051 1.75 7C1.75 9.8995 4.10051 12.25 7 12.25Z" stroke="currentColor" stroke-width="0.8" stroke-linecap="round" stroke-linejoin="round"/>
  <path d="M7.73257 7.25204C8.03137 7.08918 8.26741 6.83143 8.40341 6.51949C8.53941 6.20754 8.56762 5.85918 8.48359 5.52942C8.39956 5.19965 8.20807 4.90728 7.93937 4.69846C7.67067 4.48964 7.34006 4.37628 6.99976 4.37628C6.65945 4.37628 6.32885 4.48964 6.06015 4.69846C5.79144 4.90728 5.59996 5.19965 5.51593 5.52942C5.43189 5.85918 5.46011 6.20754 5.5961 6.51949C5.7321 6.83143 5.96814 7.08918 6.26694 7.25204L5.51226 9.01298C5.48326 9.07942 5.47122 9.15203 5.47724 9.22428C5.48325 9.29652 5.50713 9.36614 5.54671 9.42688C5.5863 9.48761 5.64035 9.53756 5.70402 9.57222C5.76769 9.60689 5.83898 9.62519 5.91148 9.62548H8.08804C8.16053 9.62519 8.23182 9.60689 8.29549 9.57222C8.35916 9.53756 8.41322 9.48761 8.4528 9.42688C8.49239 9.36614 8.51626 9.29652 8.52227 9.22428C8.52829 9.15203 8.51625 9.07942 8.48726 9.01298L7.73257 7.25204Z" stroke="currentColor" stroke-width="0.8" stroke-linecap="round" stroke-linejoin="round"/>
</svg>
