<svg width="24" height="24" viewBox="0 0 24 24" fill="none" xmlns="http://www.w3.org/2000/svg">
<path fill-rule="evenodd" clip-rule="evenodd" d="M7 4V6H6C4.89543 6 4 6.89543 4 8V18C4 19.1046 4.89543 20 6 20H18C19.1046 20 20 19.1046 20 18V8C20 6.89543 19.1046 6 18 6H17.5V4H16V6H8.5V4H7ZM6 7.5H18C18.2761 7.5 18.5 7.72386 18.5 8V9.00049L5.5 9.00049V8C5.5 7.72386 5.72386 7.5 6 7.5ZM5.5 10.5005L18.5 10.5005V18C18.5 18.2761 18.2761 18.5 18 18.5H6C5.72386 18.5 5.5 18.2761 5.5 18V10.5005Z" fill="black" fill-opacity="0.87"/>
</svg>
