<svg width="295" height="216" viewBox="0 0 295 216" fill="none" xmlns="http://www.w3.org/2000/svg">
<rect x="1" y="1" width="293" height="214" fill="white"/>
<rect x="1" y="1" width="293" height="214" stroke="black" stroke-width="2"/>
<path d="M80.345 180.738L79.886 180.701C77.7633 180.529 74.1991 180.627 72.0217 180.626H72.0208L57.5256 180.623H57.5247L13.5706 180.631L13.5754 110.832C13.5753 99.1528 13.392 87.0264 13.6135 75.4062L35.9807 52.6934C39.1784 49.4483 42.9257 45.42 46.176 42.3555L75.5579 42.3398H76.0481L76.0579 41.8496C76.1745 35.9135 76.0705 29.5374 76.0667 23.5566L133.335 23.5625H133.815L133.834 23.083C133.984 19.3882 133.891 15.1304 133.877 11.377L171.022 11.3604L171.039 23.0635L171.04 23.5635H171.539L267.014 23.5654V180.634H183.722L157.029 180.621C152.374 180.62 146.646 180.47 142.031 180.7L141.579 180.723L141.557 181.175C141.45 183.331 141.518 186.017 141.518 188.169L141.521 200.462V200.463L141.526 205.021L80.3557 205.024L80.3459 181.199L80.345 180.738Z" fill="white" stroke="black"/>
<path id="room-103" d="M192.152 139.033L192.141 175.437H147.88L147.886 139.03L192.152 139.033Z" fill="#F6F6F6" stroke="black"/>
<path id="room-102" d="M263.193 132.276L263.176 175.436H197.247L197.258 132.272L263.193 132.276Z" fill="#F6F6F6" stroke="black"/>
<path id="room-101" d="M187.937 90.6211L187.439 90.6172L182.361 90.583C182.263 84.0648 182.357 77.2996 182.359 70.7607L182.337 27.5303H263.159C263.226 30.2783 263.16 33.3607 263.16 36.1172L263.162 53.5283V53.5293C263.175 76.3421 262.936 99.5514 263.188 122.342L187.937 122.335V90.6211Z" fill="#F6F6F6" stroke="black"/>
</svg>
