<svg width="1101" height="852" viewBox="0 0 1101 852" fill="none" xmlns="http://www.w3.org/2000/svg">
<rect width="1101" height="852" fill="white"/>
<path d="M689.683 57.8105C792.188 58.5431 894.875 56.7457 997.328 57.8955C997.875 65.4002 997.505 78.321 997.511 86.0469L997.528 139.823L997.522 307.974L997.54 482.837L997.546 538.1C997.546 547.968 997.896 560.845 997.2 570.533C992.385 570.791 986.084 570.637 981.202 570.644L980.703 570.645V571.144L980.645 740.66C977.268 740.772 973.525 740.711 970.125 740.728L969.625 740.73L969.627 741.229C969.656 748.469 969.778 755.802 969.375 762.995C960.767 763.467 948.734 763.095 939.992 763.095H939.991L885.259 763.13L884.758 763.131L884.76 763.632C884.794 773.594 884.77 783.556 884.702 793.518C867.501 793.985 848.481 793.605 831.186 793.605H425.841L214.806 793.611C177.878 793.617 138.642 794.287 101.87 793.485C101.064 777.694 101.828 753.423 101.827 737.177L101.854 621.16L101.844 266.977L253.195 114.91C272.975 114.427 295.02 114.873 315.004 114.872L436.37 114.908C436.741 122.743 436.475 132.635 436.484 140.588L436.485 141.1L436.996 141.087C441.679 140.977 446.384 140.996 451.096 141.027C455.806 141.058 460.525 141.102 465.227 141.04C494.008 140.659 522.907 140.924 551.809 141.128C580.708 141.332 609.609 141.476 638.386 140.848L638.875 140.837V140.347C638.869 135.124 638.516 116.027 638.423 97.4512C638.376 88.1531 638.394 78.9744 638.553 71.7002C638.632 68.0628 638.747 64.9057 638.905 62.4502C639.045 60.2926 639.216 58.7197 639.415 57.835C656.082 57.6184 672.997 57.6913 689.683 57.8105Z" fill="white" stroke="black"/>
<path id="room-204" d="M283.353 774.721L124.723 773.495C124.463 741.687 125.276 707.099 125.527 675.103L127.108 474.506L285.845 475.768L283.353 774.721Z" fill="var(--room-204, #F6F6F6)" stroke="var(--room-204-stroke, black)"/>
<path id="room-203" d="M472.353 775.721L313.723 774.495C313.463 742.687 314.276 708.099 314.527 676.103L316.108 475.506L474.845 476.768L472.353 775.721Z" fill="var(--room-203, #F6F6F6)" stroke="var(--room-203-stroke, black)"/>
<path id="room-205" d="M431.353 384.728L272.721 383.498C272.408 358.931 273.157 332.235 273.351 307.522L274.574 152.506L433.311 153.765L431.353 384.728Z" fill="var(--room-205, #F6F6F6)" stroke="var(--room-205-stroke, black)"/>
<path id="room-202" d="M607.518 395.354L608.111 236.719C632.464 236.307 658.931 236.947 683.43 237.041L837.108 237.637L836.487 396.378L607.518 395.354Z" fill="var(--room-202, #F6F6F6)" stroke="var(--room-202-stroke, black)"/>
<path d="M345.133 611.062V616.5H348.273V618.023H345.133V623.578H343.305V611.062H345.133ZM339.461 612.609C339.461 617.906 335.711 621.82 329.641 623.601L328.867 622.101C333.895 620.648 337.105 617.754 337.492 614.133H329.781V612.609H339.461ZM338.547 623.812C342.742 623.812 345.367 625.336 345.367 627.82C345.367 630.351 342.742 631.851 338.547 631.851C334.398 631.851 331.703 630.351 331.727 627.82C331.703 625.336 334.398 623.812 338.547 623.812ZM338.547 625.289C335.5 625.266 333.531 626.25 333.555 627.82C333.531 629.391 335.5 630.375 338.547 630.375C341.617 630.375 343.586 629.391 343.586 627.82C343.586 626.25 341.617 625.266 338.547 625.289ZM356.406 612.586C359.688 612.586 362.008 614.578 362.008 617.484C362.008 620.391 359.688 622.383 356.406 622.383C353.125 622.383 350.758 620.391 350.781 617.484C350.758 614.578 353.125 612.586 356.406 612.586ZM356.406 614.203C354.18 614.203 352.562 615.539 352.586 617.484C352.562 619.43 354.18 620.766 356.406 620.766C358.609 620.766 360.203 619.43 360.203 617.484C360.203 615.539 358.609 614.203 356.406 614.203ZM366.672 611.062V631.945H364.844V611.062H366.672ZM349.703 625.781C353.547 625.781 358.844 625.758 363.461 625.078L363.602 626.437C358.844 627.328 353.711 627.351 349.961 627.351L349.703 625.781ZM387.508 611.062V621.867H385.703V611.062H387.508ZM387.531 622.922V627.914H375.836V630.164H388.281V631.664H374.031V626.484H385.703V624.398H373.984V622.922H387.531ZM377.711 613.266C377.688 616.219 379.938 618.82 383.031 619.828L382.117 621.258C379.68 620.426 377.734 618.68 376.797 616.43C375.859 618.855 373.902 620.766 371.43 621.656L370.469 620.203C373.609 619.101 375.836 616.336 375.836 613.266V611.672H377.711V613.266ZM397.844 630L397.82 628.453L403.609 622.359C405.625 620.226 406.586 619.078 406.586 617.508C406.586 615.773 405.109 614.625 403.211 614.625C401.195 614.625 399.906 615.914 399.906 617.812H397.914C397.891 614.812 400.211 612.797 403.281 612.797C406.352 612.797 408.555 614.859 408.555 617.508C408.555 619.406 407.664 620.883 404.664 623.976L400.773 627.984V628.125H408.859V630H397.844ZM417.484 630.234C413.711 630.234 411.555 627.07 411.555 621.516C411.555 616.008 413.758 612.797 417.484 612.797C421.211 612.797 423.414 616.008 423.414 621.516C423.414 627.07 421.234 630.234 417.484 630.234ZM417.484 628.359C419.922 628.359 421.352 625.898 421.352 621.516C421.352 617.133 419.922 614.625 417.484 614.625C415.047 614.625 413.594 617.133 413.594 621.516C413.594 625.898 415.023 628.359 417.484 628.359ZM432.086 630.234C428.711 630.234 426.297 628.43 426.18 625.734H428.312C428.43 627.351 430.047 628.359 432.062 628.359C434.289 628.359 435.93 627.141 435.93 625.383C435.93 623.531 434.453 622.219 431.805 622.219H430.422V620.367H431.805C433.867 620.367 435.297 619.219 435.297 617.461C435.297 615.773 434.055 614.625 432.133 614.625C430.328 614.625 428.664 615.633 428.57 617.297H426.531C426.648 614.601 429.133 612.797 432.156 612.797C435.391 612.797 437.359 614.906 437.336 617.344C437.359 619.266 436.234 620.695 434.453 621.187V621.305C436.656 621.656 438.016 623.226 437.992 625.383C438.016 628.172 435.461 630.234 432.086 630.234ZM458.289 614.156V615.68H441.227V614.156H448.867V611.414H450.672V614.156H458.289ZM459.367 627.937V629.461H440.289V627.937H448.867V625.008C445.164 624.808 442.914 623.367 442.938 621.023C442.914 618.539 445.539 617.086 449.781 617.109C453.977 617.086 456.625 618.539 456.625 621.023C456.625 623.367 454.352 624.808 450.672 625.008V627.937H459.367ZM449.781 618.562C446.664 618.562 444.766 619.476 444.789 621.023C444.766 622.617 446.664 623.508 449.781 623.531C452.852 623.508 454.75 622.617 454.75 621.023C454.75 619.476 452.852 618.562 449.781 618.562Z" fill="black"/>
<path d="M156.133 611.062V616.5H159.273V618.023H156.133V623.578H154.305V611.062H156.133ZM150.461 612.609C150.461 617.906 146.711 621.82 140.641 623.601L139.867 622.101C144.895 620.648 148.105 617.754 148.492 614.133H140.781V612.609H150.461ZM149.547 623.812C153.742 623.812 156.367 625.336 156.367 627.82C156.367 630.351 153.742 631.851 149.547 631.851C145.398 631.851 142.703 630.351 142.727 627.82C142.703 625.336 145.398 623.812 149.547 623.812ZM149.547 625.289C146.5 625.266 144.531 626.25 144.555 627.82C144.531 629.391 146.5 630.375 149.547 630.375C152.617 630.375 154.586 629.391 154.586 627.82C154.586 626.25 152.617 625.266 149.547 625.289ZM167.406 612.586C170.688 612.586 173.008 614.578 173.008 617.484C173.008 620.391 170.688 622.383 167.406 622.383C164.125 622.383 161.758 620.391 161.781 617.484C161.758 614.578 164.125 612.586 167.406 612.586ZM167.406 614.203C165.18 614.203 163.562 615.539 163.586 617.484C163.562 619.43 165.18 620.766 167.406 620.766C169.609 620.766 171.203 619.43 171.203 617.484C171.203 615.539 169.609 614.203 167.406 614.203ZM177.672 611.062V631.945H175.844V611.062H177.672ZM160.703 625.781C164.547 625.781 169.844 625.758 174.461 625.078L174.602 626.437C169.844 627.328 164.711 627.351 160.961 627.351L160.703 625.781ZM198.508 611.062V621.867H196.703V611.062H198.508ZM198.531 622.922V627.914H186.836V630.164H199.281V631.664H185.031V626.484H196.703V624.398H184.984V622.922H198.531ZM188.711 613.266C188.688 616.219 190.938 618.82 194.031 619.828L193.117 621.258C190.68 620.426 188.734 618.68 187.797 616.43C186.859 618.855 184.902 620.766 182.43 621.656L181.469 620.203C184.609 619.101 186.836 616.336 186.836 613.266V611.672H188.711V613.266ZM208.844 630L208.82 628.453L214.609 622.359C216.625 620.226 217.586 619.078 217.586 617.508C217.586 615.773 216.109 614.625 214.211 614.625C212.195 614.625 210.906 615.914 210.906 617.812H208.914C208.891 614.812 211.211 612.797 214.281 612.797C217.352 612.797 219.555 614.859 219.555 617.508C219.555 619.406 218.664 620.883 215.664 623.976L211.773 627.984V628.125H219.859V630H208.844ZM228.484 630.234C224.711 630.234 222.555 627.07 222.555 621.516C222.555 616.008 224.758 612.797 228.484 612.797C232.211 612.797 234.414 616.008 234.414 621.516C234.414 627.07 232.234 630.234 228.484 630.234ZM228.484 628.359C230.922 628.359 232.352 625.898 232.352 621.516C232.352 617.133 230.922 614.625 228.484 614.625C226.047 614.625 224.594 617.133 224.594 621.516C224.594 625.898 226.023 628.359 228.484 628.359ZM236.805 626.531V624.797L244.445 613.031H247.047V624.68H249.414V626.531H247.047V630H245.031V626.531H236.805ZM239.078 624.68H245.031V615.703H244.82L239.078 624.539V624.68ZM269.453 614.156V615.68H252.391V614.156H260.031V611.414H261.836V614.156H269.453ZM270.531 627.937V629.461H251.453V627.937H260.031V625.008C256.328 624.808 254.078 623.367 254.102 621.023C254.078 618.539 256.703 617.086 260.945 617.109C265.141 617.086 267.789 618.539 267.789 621.023C267.789 623.367 265.516 624.808 261.836 625.008V627.937H270.531ZM260.945 618.562C257.828 618.562 255.93 619.476 255.953 621.023C255.93 622.617 257.828 623.508 260.945 623.531C264.016 623.508 265.914 622.617 265.914 621.023C265.914 619.476 264.016 618.562 260.945 618.562Z" fill="black"/>
<path d="M304.133 258.062V263.5H307.273V265.023H304.133V270.578H302.305V258.062H304.133ZM298.461 259.609C298.461 264.906 294.711 268.82 288.641 270.602L287.867 269.102C292.895 267.648 296.105 264.754 296.492 261.133H288.781V259.609H298.461ZM297.547 270.812C301.742 270.812 304.367 272.336 304.367 274.82C304.367 277.352 301.742 278.852 297.547 278.852C293.398 278.852 290.703 277.352 290.727 274.82C290.703 272.336 293.398 270.812 297.547 270.812ZM297.547 272.289C294.5 272.266 292.531 273.25 292.555 274.82C292.531 276.391 294.5 277.375 297.547 277.375C300.617 277.375 302.586 276.391 302.586 274.82C302.586 273.25 300.617 272.266 297.547 272.289ZM315.406 259.586C318.688 259.586 321.008 261.578 321.008 264.484C321.008 267.391 318.688 269.383 315.406 269.383C312.125 269.383 309.758 267.391 309.781 264.484C309.758 261.578 312.125 259.586 315.406 259.586ZM315.406 261.203C313.18 261.203 311.562 262.539 311.586 264.484C311.562 266.43 313.18 267.766 315.406 267.766C317.609 267.766 319.203 266.43 319.203 264.484C319.203 262.539 317.609 261.203 315.406 261.203ZM325.672 258.062V278.945H323.844V258.062H325.672ZM308.703 272.781C312.547 272.781 317.844 272.758 322.461 272.078L322.602 273.438C317.844 274.328 312.711 274.352 308.961 274.352L308.703 272.781ZM346.508 258.062V268.867H344.703V258.062H346.508ZM346.531 269.922V274.914H334.836V277.164H347.281V278.664H333.031V273.484H344.703V271.398H332.984V269.922H346.531ZM336.711 260.266C336.688 263.219 338.938 265.82 342.031 266.828L341.117 268.258C338.68 267.426 336.734 265.68 335.797 263.43C334.859 265.855 332.902 267.766 330.43 268.656L329.469 267.203C332.609 266.102 334.836 263.336 334.836 260.266V258.672H336.711V260.266ZM356.844 277L356.82 275.453L362.609 269.359C364.625 267.227 365.586 266.078 365.586 264.508C365.586 262.773 364.109 261.625 362.211 261.625C360.195 261.625 358.906 262.914 358.906 264.812H356.914C356.891 261.812 359.211 259.797 362.281 259.797C365.352 259.797 367.555 261.859 367.555 264.508C367.555 266.406 366.664 267.883 363.664 270.977L359.773 274.984V275.125H367.859V277H356.844ZM376.484 277.234C372.711 277.234 370.555 274.07 370.555 268.516C370.555 263.008 372.758 259.797 376.484 259.797C380.211 259.797 382.414 263.008 382.414 268.516C382.414 274.07 380.234 277.234 376.484 277.234ZM376.484 275.359C378.922 275.359 380.352 272.898 380.352 268.516C380.352 264.133 378.922 261.625 376.484 261.625C374.047 261.625 372.594 264.133 372.594 268.516C372.594 272.898 374.023 275.359 376.484 275.359ZM390.758 277.234C387.688 277.234 385.367 275.336 385.25 272.734H387.289C387.453 274.258 388.93 275.383 390.758 275.383C392.961 275.383 394.555 273.766 394.555 271.633C394.555 269.43 392.891 267.812 390.617 267.789C389.188 267.766 388.086 268.211 387.453 269.312H385.414L386.609 260.031H395.797V261.906H388.367L387.734 266.875H387.898C388.648 266.289 389.797 265.891 390.992 265.891C394.227 265.891 396.617 268.281 396.617 271.586C396.617 274.867 394.133 277.234 390.758 277.234ZM416.797 261.156V262.68H399.734V261.156H407.375V258.414H409.18V261.156H416.797ZM417.875 274.938V276.461H398.797V274.938H407.375V272.008C403.672 271.809 401.422 270.367 401.445 268.023C401.422 265.539 404.047 264.086 408.289 264.109C412.484 264.086 415.133 265.539 415.133 268.023C415.133 270.367 412.859 271.809 409.18 272.008V274.938H417.875ZM408.289 265.562C405.172 265.562 403.273 266.477 403.297 268.023C403.273 269.617 405.172 270.508 408.289 270.531C411.359 270.508 413.258 269.617 413.258 268.023C413.258 266.477 411.359 265.562 408.289 265.562Z" fill="black"/>
<path d="M669.133 305.062V310.5H672.273V312.023H669.133V317.578H667.305V305.062H669.133ZM663.461 306.609C663.461 311.906 659.711 315.82 653.641 317.601L652.867 316.101C657.895 314.648 661.105 311.754 661.492 308.133H653.781V306.609H663.461ZM662.547 317.812C666.742 317.812 669.367 319.336 669.367 321.82C669.367 324.351 666.742 325.851 662.547 325.851C658.398 325.851 655.703 324.351 655.727 321.82C655.703 319.336 658.398 317.812 662.547 317.812ZM662.547 319.289C659.5 319.266 657.531 320.25 657.555 321.82C657.531 323.391 659.5 324.375 662.547 324.375C665.617 324.375 667.586 323.391 667.586 321.82C667.586 320.25 665.617 319.266 662.547 319.289ZM680.406 306.586C683.688 306.586 686.008 308.578 686.008 311.484C686.008 314.391 683.688 316.383 680.406 316.383C677.125 316.383 674.758 314.391 674.781 311.484C674.758 308.578 677.125 306.586 680.406 306.586ZM680.406 308.203C678.18 308.203 676.562 309.539 676.586 311.484C676.562 313.43 678.18 314.766 680.406 314.766C682.609 314.766 684.203 313.43 684.203 311.484C684.203 309.539 682.609 308.203 680.406 308.203ZM690.672 305.062V325.945H688.844V305.062H690.672ZM673.703 319.781C677.547 319.781 682.844 319.758 687.461 319.078L687.602 320.437C682.844 321.328 677.711 321.351 673.961 321.351L673.703 319.781ZM711.508 305.062V315.867H709.703V305.062H711.508ZM711.531 316.922V321.914H699.836V324.164H712.281V325.664H698.031V320.484H709.703V318.398H697.984V316.922H711.531ZM701.711 307.266C701.688 310.219 703.938 312.82 707.031 313.828L706.117 315.258C703.68 314.426 701.734 312.68 700.797 310.43C699.859 312.855 697.902 314.766 695.43 315.656L694.469 314.203C697.609 313.101 699.836 310.336 699.836 307.266V305.672H701.711V307.266ZM721.844 324L721.82 322.453L727.609 316.359C729.625 314.226 730.586 313.078 730.586 311.508C730.586 309.773 729.109 308.625 727.211 308.625C725.195 308.625 723.906 309.914 723.906 311.812H721.914C721.891 308.812 724.211 306.797 727.281 306.797C730.352 306.797 732.555 308.859 732.555 311.508C732.555 313.406 731.664 314.883 728.664 317.976L724.773 321.984V322.125H732.859V324H721.844ZM741.484 324.234C737.711 324.234 735.555 321.07 735.555 315.516C735.555 310.008 737.758 306.797 741.484 306.797C745.211 306.797 747.414 310.008 747.414 315.516C747.414 321.07 745.234 324.234 741.484 324.234ZM741.484 322.359C743.922 322.359 745.352 319.898 745.352 315.516C745.352 311.133 743.922 308.625 741.484 308.625C739.047 308.625 737.594 311.133 737.594 315.516C737.594 319.898 739.023 322.359 741.484 322.359ZM750.227 324L750.203 322.453L755.992 316.359C758.008 314.226 758.969 313.078 758.969 311.508C758.969 309.773 757.492 308.625 755.594 308.625C753.578 308.625 752.289 309.914 752.289 311.812H750.297C750.273 308.812 752.594 306.797 755.664 306.797C758.734 306.797 760.938 308.859 760.938 311.508C760.938 313.406 760.047 314.883 757.047 317.976L753.156 321.984V322.125H761.242V324H750.227ZM781.562 308.156V309.68H764.5V308.156H772.141V305.414H773.945V308.156H781.562ZM782.641 321.937V323.461H763.562V321.937H772.141V319.008C768.438 318.808 766.188 317.367 766.211 315.023C766.188 312.539 768.812 311.086 773.055 311.109C777.25 311.086 779.898 312.539 779.898 315.023C779.898 317.367 777.625 318.808 773.945 319.008V321.937H782.641ZM773.055 312.562C769.938 312.562 768.039 313.476 768.062 315.023C768.039 316.617 769.938 317.508 773.055 317.531C776.125 317.508 778.023 316.617 778.023 315.023C778.023 313.476 776.125 312.562 773.055 312.562Z" fill="black"/>
</svg>