<svg width="1225" height="895" viewBox="0 0 1225 895" fill="none" xmlns="http://www.w3.org/2000/svg">
<rect width="1225" height="895" fill="white"/>
<path d="M711.825 95.5635L711.826 96.0625H712.325L1110.36 96.0742V750.035L762.912 750.029L652.065 749.979C632.672 749.973 608.979 749.351 589.871 750.304L589.419 750.326L589.396 750.778C588.954 759.662 589.234 770.699 589.234 779.682L589.247 830.618L589.271 851.081L332.108 851.099L332.062 750.803V750.342L331.603 750.305C322.872 749.599 308.209 750.004 299.071 749.998H299.07L238.875 749.986L54.7764 750.022L54.7979 459.235L54.7891 450.095C54.7073 404.353 54.0858 357.126 54.9658 311.795L148.287 217.231C161.661 203.689 177.488 186.707 191.116 173.933L313.757 173.865H314.247L314.257 173.376C314.751 148.276 314.287 121.309 314.289 96.0342L553.679 96.0596H554.159L554.179 95.5801C554.82 79.7949 554.375 61.552 554.342 45.5713L711.751 45.5L711.825 95.5635Z" fill="white" stroke="black"/>
<path id="room-103" d="M799.499 574.517L799.45 728.496L612.5 728.499L612.531 574.5L799.499 574.517Z" fill="#F6F6F6" stroke="black"/>
<path id="room-102" d="M1094.5 546.52L1094.43 728.495L817.5 728.499L817.546 546.5L1094.5 546.52Z" fill="#F6F6F6" stroke="black"/>
<path id="room-101" d="M778.836 377.051L778.339 377.047L755.709 376.896C755.263 349.397 755.669 320.777 755.681 293.199L755.584 112.5H1094.32C1094.67 124.293 1094.36 137.771 1094.36 149.65L1094.37 221.796V221.797C1094.42 316.879 1093.42 413.565 1094.49 508.499L778.836 508.47V377.051Z" fill="#F6F6F6" stroke="black"/>
<path d="M880.133 300.062V305.5H883.273V307.023H880.133V312.578H878.305V300.062H880.133ZM874.461 301.609C874.461 306.906 870.711 310.82 864.641 312.602L863.867 311.102C868.895 309.648 872.105 306.754 872.492 303.133H864.781V301.609H874.461ZM873.547 312.812C877.742 312.812 880.367 314.336 880.367 316.82C880.367 319.352 877.742 320.852 873.547 320.852C869.398 320.852 866.703 319.352 866.727 316.82C866.703 314.336 869.398 312.812 873.547 312.812ZM873.547 314.289C870.5 314.266 868.531 315.25 868.555 316.82C868.531 318.391 870.5 319.375 873.547 319.375C876.617 319.375 878.586 318.391 878.586 316.82C878.586 315.25 876.617 314.266 873.547 314.289ZM891.406 301.586C894.688 301.586 897.008 303.578 897.008 306.484C897.008 309.391 894.688 311.383 891.406 311.383C888.125 311.383 885.758 309.391 885.781 306.484C885.758 303.578 888.125 301.586 891.406 301.586ZM891.406 303.203C889.18 303.203 887.562 304.539 887.586 306.484C887.562 308.43 889.18 309.766 891.406 309.766C893.609 309.766 895.203 308.43 895.203 306.484C895.203 304.539 893.609 303.203 891.406 303.203ZM901.672 300.062V320.945H899.844V300.062H901.672ZM884.703 314.781C888.547 314.781 893.844 314.758 898.461 314.078L898.602 315.438C893.844 316.328 888.711 316.352 884.961 316.352L884.703 314.781ZM922.508 300.062V310.867H920.703V300.062H922.508ZM922.531 311.922V316.914H910.836V319.164H923.281V320.664H909.031V315.484H920.703V313.398H908.984V311.922H922.531ZM912.711 302.266C912.688 305.219 914.938 307.82 918.031 308.828L917.117 310.258C914.68 309.426 912.734 307.68 911.797 305.43C910.859 307.855 908.902 309.766 906.43 310.656L905.469 309.203C908.609 308.102 910.836 305.336 910.836 302.266V300.672H912.711V302.266ZM938.844 302.031V319H936.711V304.234H936.617L932.492 306.977V304.844L936.711 302.031H938.844ZM948.922 319.234C945.148 319.234 942.992 316.07 942.992 310.516C942.992 305.008 945.195 301.797 948.922 301.797C952.648 301.797 954.852 305.008 954.852 310.516C954.852 316.07 952.672 319.234 948.922 319.234ZM948.922 317.359C951.359 317.359 952.789 314.898 952.789 310.516C952.789 306.133 951.359 303.625 948.922 303.625C946.484 303.625 945.031 306.133 945.031 310.516C945.031 314.898 946.461 317.359 948.922 317.359ZM963.664 302.031V319H961.531V304.234H961.438L957.312 306.977V304.844L961.531 302.031H963.664ZM985.438 303.156V304.68H968.375V303.156H976.016V300.414H977.82V303.156H985.438ZM986.516 316.938V318.461H967.438V316.938H976.016V314.008C972.312 313.809 970.062 312.367 970.086 310.023C970.062 307.539 972.688 306.086 976.93 306.109C981.125 306.086 983.773 307.539 983.773 310.023C983.773 312.367 981.5 313.809 977.82 314.008V316.938H986.516ZM976.93 307.562C973.812 307.562 971.914 308.477 971.938 310.023C971.914 311.617 973.812 312.508 976.93 312.531C980 312.508 981.898 311.617 981.898 310.023C981.898 308.477 980 307.562 976.93 307.562Z" fill="black"/>
<path d="M909.133 627.062V632.5H912.273V634.023H909.133V639.578H907.305V627.062H909.133ZM903.461 628.609C903.461 633.906 899.711 637.82 893.641 639.602L892.867 638.102C897.895 636.648 901.105 633.754 901.492 630.133H893.781V628.609H903.461ZM902.547 639.812C906.742 639.812 909.367 641.336 909.367 643.82C909.367 646.352 906.742 647.852 902.547 647.852C898.398 647.852 895.703 646.352 895.727 643.82C895.703 641.336 898.398 639.812 902.547 639.812ZM902.547 641.289C899.5 641.266 897.531 642.25 897.555 643.82C897.531 645.391 899.5 646.375 902.547 646.375C905.617 646.375 907.586 645.391 907.586 643.82C907.586 642.25 905.617 641.266 902.547 641.289ZM920.406 628.586C923.688 628.586 926.008 630.578 926.008 633.484C926.008 636.391 923.688 638.383 920.406 638.383C917.125 638.383 914.758 636.391 914.781 633.484C914.758 630.578 917.125 628.586 920.406 628.586ZM920.406 630.203C918.18 630.203 916.562 631.539 916.586 633.484C916.562 635.43 918.18 636.766 920.406 636.766C922.609 636.766 924.203 635.43 924.203 633.484C924.203 631.539 922.609 630.203 920.406 630.203ZM930.672 627.062V647.945H928.844V627.062H930.672ZM913.703 641.781C917.547 641.781 922.844 641.758 927.461 641.078L927.602 642.438C922.844 643.328 917.711 643.352 913.961 643.352L913.703 641.781ZM951.508 627.062V637.867H949.703V627.062H951.508ZM951.531 638.922V643.914H939.836V646.164H952.281V647.664H938.031V642.484H949.703V640.398H937.984V638.922H951.531ZM941.711 629.266C941.688 632.219 943.938 634.82 947.031 635.828L946.117 637.258C943.68 636.426 941.734 634.68 940.797 632.43C939.859 634.855 937.902 636.766 935.43 637.656L934.469 636.203C937.609 635.102 939.836 632.336 939.836 629.266V627.672H941.711V629.266ZM967.844 629.031V646H965.711V631.234H965.617L961.492 633.977V631.844L965.711 629.031H967.844ZM977.922 646.234C974.148 646.234 971.992 643.07 971.992 637.516C971.992 632.008 974.195 628.797 977.922 628.797C981.648 628.797 983.852 632.008 983.852 637.516C983.852 643.07 981.672 646.234 977.922 646.234ZM977.922 644.359C980.359 644.359 981.789 641.898 981.789 637.516C981.789 633.133 980.359 630.625 977.922 630.625C975.484 630.625 974.031 633.133 974.031 637.516C974.031 641.898 975.461 644.359 977.922 644.359ZM986.664 646L986.641 644.453L992.43 638.359C994.445 636.227 995.406 635.078 995.406 633.508C995.406 631.773 993.93 630.625 992.031 630.625C990.016 630.625 988.727 631.914 988.727 633.812H986.734C986.711 630.812 989.031 628.797 992.102 628.797C995.172 628.797 997.375 630.859 997.375 633.508C997.375 635.406 996.484 636.883 993.484 639.977L989.594 643.984V644.125H997.68V646H986.664ZM1018 630.156V631.68H1000.94V630.156H1008.58V627.414H1010.38V630.156H1018ZM1019.08 643.938V645.461H1000V643.938H1008.58V641.008C1004.88 640.809 1002.62 639.367 1002.65 637.023C1002.62 634.539 1005.25 633.086 1009.49 633.109C1013.69 633.086 1016.34 634.539 1016.34 637.023C1016.34 639.367 1014.06 640.809 1010.38 641.008V643.938H1019.08ZM1009.49 634.562C1006.38 634.562 1004.48 635.477 1004.5 637.023C1004.48 638.617 1006.38 639.508 1009.49 639.531C1012.56 639.508 1014.46 638.617 1014.46 637.023C1014.46 635.477 1012.56 634.562 1009.49 634.562Z" fill="black"/>
<path d="M659.133 635.062V640.5H662.273V642.023H659.133V647.578H657.305V635.062H659.133ZM653.461 636.609C653.461 641.906 649.711 645.82 643.641 647.602L642.867 646.102C647.895 644.648 651.105 641.754 651.492 638.133H643.781V636.609H653.461ZM652.547 647.812C656.742 647.812 659.367 649.336 659.367 651.82C659.367 654.352 656.742 655.852 652.547 655.852C648.398 655.852 645.703 654.352 645.727 651.82C645.703 649.336 648.398 647.812 652.547 647.812ZM652.547 649.289C649.5 649.266 647.531 650.25 647.555 651.82C647.531 653.391 649.5 654.375 652.547 654.375C655.617 654.375 657.586 653.391 657.586 651.82C657.586 650.25 655.617 649.266 652.547 649.289ZM670.406 636.586C673.688 636.586 676.008 638.578 676.008 641.484C676.008 644.391 673.688 646.383 670.406 646.383C667.125 646.383 664.758 644.391 664.781 641.484C664.758 638.578 667.125 636.586 670.406 636.586ZM670.406 638.203C668.18 638.203 666.562 639.539 666.586 641.484C666.562 643.43 668.18 644.766 670.406 644.766C672.609 644.766 674.203 643.43 674.203 641.484C674.203 639.539 672.609 638.203 670.406 638.203ZM680.672 635.062V655.945H678.844V635.062H680.672ZM663.703 649.781C667.547 649.781 672.844 649.758 677.461 649.078L677.602 650.438C672.844 651.328 667.711 651.352 663.961 651.352L663.703 649.781ZM701.508 635.062V645.867H699.703V635.062H701.508ZM701.531 646.922V651.914H689.836V654.164H702.281V655.664H688.031V650.484H699.703V648.398H687.984V646.922H701.531ZM691.711 637.266C691.688 640.219 693.938 642.82 697.031 643.828L696.117 645.258C693.68 644.426 691.734 642.68 690.797 640.43C689.859 642.855 687.902 644.766 685.43 645.656L684.469 644.203C687.609 643.102 689.836 640.336 689.836 637.266V635.672H691.711V637.266ZM717.844 637.031V654H715.711V639.234H715.617L711.492 641.977V639.844L715.711 637.031H717.844ZM727.922 654.234C724.148 654.234 721.992 651.07 721.992 645.516C721.992 640.008 724.195 636.797 727.922 636.797C731.648 636.797 733.852 640.008 733.852 645.516C733.852 651.07 731.672 654.234 727.922 654.234ZM727.922 652.359C730.359 652.359 731.789 649.898 731.789 645.516C731.789 641.133 730.359 638.625 727.922 638.625C725.484 638.625 724.031 641.133 724.031 645.516C724.031 649.898 725.461 652.359 727.922 652.359ZM742.523 654.234C739.148 654.234 736.734 652.43 736.617 649.734H738.75C738.867 651.352 740.484 652.359 742.5 652.359C744.727 652.359 746.367 651.141 746.367 649.383C746.367 647.531 744.891 646.219 742.242 646.219H740.859V644.367H742.242C744.305 644.367 745.734 643.219 745.734 641.461C745.734 639.773 744.492 638.625 742.57 638.625C740.766 638.625 739.102 639.633 739.008 641.297H736.969C737.086 638.602 739.57 636.797 742.594 636.797C745.828 636.797 747.797 638.906 747.773 641.344C747.797 643.266 746.672 644.695 744.891 645.188V645.305C747.094 645.656 748.453 647.227 748.43 649.383C748.453 652.172 745.898 654.234 742.523 654.234ZM768.727 638.156V639.68H751.664V638.156H759.305V635.414H761.109V638.156H768.727ZM769.805 651.938V653.461H750.727V651.938H759.305V649.008C755.602 648.809 753.352 647.367 753.375 645.023C753.352 642.539 755.977 641.086 760.219 641.109C764.414 641.086 767.062 642.539 767.062 645.023C767.062 647.367 764.789 648.809 761.109 649.008V651.938H769.805ZM760.219 642.562C757.102 642.562 755.203 643.477 755.227 645.023C755.203 646.617 757.102 647.508 760.219 647.531C763.289 647.508 765.188 646.617 765.188 645.023C765.188 643.477 763.289 642.562 760.219 642.562Z" fill="black"/>
</svg>