<svg width="295" height="216" viewBox="0 0 295 216" fill="none" xmlns="http://www.w3.org/2000/svg">
<rect x="1" y="1" width="293" height="214" fill="white"/>
<rect x="1" y="1" width="293" height="214" stroke="black" stroke-width="2"/>
<path d="M184.79 15.0298C212.167 15.2149 239.527 14.7631 266.877 15.0474C266.988 16.9597 266.904 19.9446 266.906 21.8149L266.91 35.4478L266.908 78.0776L266.913 122.41L266.914 136.419C266.914 138.829 266.997 141.89 266.843 144.283C265.618 144.327 264.115 144.296 262.902 144.297H262.402V144.796L262.386 187.408C261.587 187.423 260.734 187.413 259.932 187.417L259.432 187.419L259.434 187.919C259.441 189.648 259.469 191.376 259.384 193.076C257.725 193.145 255.664 193.121 253.795 193.101L251.86 193.087L237.195 193.096L236.693 193.097L236.695 193.598C236.703 196.001 236.697 198.404 236.681 200.807C232.173 200.912 227.231 200.823 222.706 200.823H114.099L57.5549 200.824C47.7666 200.825 37.3926 200.991 27.6438 200.798C27.4574 196.808 27.65 190.915 27.6497 186.89L27.6565 157.477L27.6536 67.8462L67.9866 29.5024C71.9149 29.4148 76.1661 29.4543 80.2825 29.48L84.4016 29.4956L116.569 29.5044C116.643 31.4147 116.583 33.7267 116.585 35.6421V36.1528L117.096 36.1421C119.631 36.0857 122.088 36.1615 124.656 36.1294C132.364 36.0327 140.103 36.1 147.848 36.1519C155.591 36.2037 163.339 36.2399 171.055 36.0806L171.545 36.0708V35.5806C171.544 34.2642 171.449 29.3948 171.424 24.7036C171.412 22.3474 171.416 20.0247 171.458 18.186C171.479 17.2662 171.51 16.4722 171.552 15.8579C171.576 15.5068 171.603 15.2326 171.63 15.0327C175.995 14.9823 180.421 15.0002 184.79 15.0298Z" fill="white" stroke="black"/>
<path d="M75.5592 196.032L33.783 195.726C33.7232 187.768 33.9332 179.154 33.9995 171.156L34.4201 120.673L76.2197 120.987L75.5592 196.032Z" fill="#F6F6F6" stroke="black"/>
<path d="M126.2 196.286L84.4234 195.98C84.3635 188.021 84.5735 179.407 84.6399 171.409L85.0605 120.927L126.86 121.24L126.2 196.286Z" fill="#F6F6F6" stroke="black"/>
<path d="M115.214 97.161L73.436 96.8537C73.3648 90.7321 73.5562 84.1207 73.6073 77.9658L73.9321 39.0394L115.732 39.3517L115.214 97.161Z" fill="#F6F6F6" stroke="black"/>
<path d="M163.145 99.8595L163.301 60.3833C169.722 60.2904 176.661 60.4444 183.115 60.4678L223.926 60.6177L223.763 100.115L163.145 99.8595Z" fill="#F6F6F6" stroke="black"/>
</svg>
